HIERARCHY
ROOT Hips
{
  OFFSET 0.0 0.0 0.0
  CHANNELS 6 Xposition Yposition Zposition Zrotation Xrotation Yrotation
  JOINT LeftUpLeg
  {
    OFFSET 0.1 0.0 0.0
    CHANNELS 3 Zrotation Xrotation Yrotation
    JOINT LeftLeg
    {
      OFFSET 0.0 -0.4 0.0
      CHANNELS 3 Zrotation Xrotation Yrotation
      End Site
      {
        OFFSET 0.0 -0.4 0.0
      }
    }
  }
  JOINT RightUpLeg
  {
    OFFSET -0.1 0.0 0.0
    CHANNELS 3 Zrotation Xrotation Yrotation
    JOINT RightLeg
    {
      OFFSET 0.0 -0.4 0.0
      CHANNELS 3 Zrotation Xrotation Yrotation
      End Site
      {
        OFFSET 0.0 -0.4 0.0
      }
    }
  }
}
MOTION
Frames: 53
Frame Time: 0.033333
0.2508 0.7825 0.0006 0.0000 0.0000 0.0000 0.0000 2.5150 0.0000 0.0000 1.8863 0.0000 0.0000 -2.5150 0.0000 0.0000 1.8863 0.0000
0.2525 0.7869 0.0018 0.0000 0.0000 0.0000 0.0000 7.3859 0.0000 0.0000 5.5394 0.0000 0.0000 -7.3859 0.0000 0.0000 5.5394 0.0000
0.2542 0.7895 0.0029 0.0000 0.0000 0.0000 0.0000 11.7897 0.0000 0.0000 8.8423 0.0000 0.0000 -11.7897 0.0000 0.0000 8.8423 0.0000
0.2559 0.7898 0.0039 0.0000 0.0000 0.0000 0.0000 15.4477 0.0000 0.0000 11.5858 0.0000 0.0000 -15.4477 0.0000 0.0000 11.5858 0.0000
0.2575 0.7877 0.0045 0.0000 0.0000 0.0000 0.0000 18.1286 0.0000 0.0000 13.5965 0.0000 0.0000 -18.1286 0.0000 0.0000 13.5965 0.0000
0.2592 0.7836 0.0049 0.0000 0.0000 0.0000 0.0000 19.6629 0.0000 0.0000 14.7471 0.0000 0.0000 -19.6629 0.0000 0.0000 14.7471 0.0000
0.2609 0.7786 0.0050 0.0000 0.0000 0.0000 0.0000 19.9534 0.0000 0.0000 14.9650 0.0000 0.0000 -19.9534 0.0000 0.0000 14.9650 0.0000
0.2625 0.7740 0.0047 0.0000 0.0000 0.0000 0.0000 18.9818 0.0000 0.0000 14.2363 0.0000 0.0000 -18.9818 0.0000 0.0000 14.2363 0.0000
0.2642 0.7709 0.0042 0.0000 0.0000 0.0000 0.0000 16.8096 0.0000 0.0000 12.6072 0.0000 0.0000 -16.8096 0.0000 0.0000 12.6072 0.0000
0.2659 0.7700 0.0034 0.0000 0.0000 0.0000 0.0000 13.5741 0.0000 0.0000 10.1806 0.0000 0.0000 -13.5741 0.0000 0.0000 10.1806 0.0000
0.2676 0.7717 0.0024 0.0000 0.0000 0.0000 0.0000 9.4800 0.0000 0.0000 7.1100 0.0000 0.0000 -9.4800 0.0000 0.0000 7.1100 0.0000
0.2692 0.7754 0.0012 0.0000 0.0000 0.0000 0.0000 4.7863 0.0000 0.0000 3.5897 0.0000 0.0000 -4.7863 0.0000 0.0000 3.5897 0.0000
0.2709 0.7802 -0.0001 0.0000 0.0000 0.0000 0.0000 -0.2101 0.0000 0.0000 0.1576 0.0000 0.0000 0.2101 0.0000 0.0000 0.1576 0.0000
0.2726 0.7850 -0.0013 0.0000 0.0000 0.0000 0.0000 -5.1933 0.0000 0.0000 3.8950 0.0000 0.0000 5.1933 0.0000 0.0000 3.8950 0.0000
0.2742 0.7886 -0.0025 0.0000 0.0000 0.0000 0.0000 -9.8480 0.0000 0.0000 7.3860 0.0000 0.0000 9.8480 0.0000 0.0000 7.3860 0.0000
0.2759 0.7900 -0.0035 0.0000 0.0000 0.0000 0.0000 -13.8797 0.0000 0.0000 10.4098 0.0000 0.0000 13.8797 0.0000 0.0000 10.4098 0.0000
0.2776 0.7889 -0.0043 0.0000 0.0000 0.0000 0.0000 -17.0336 0.0000 0.0000 12.7752 0.0000 0.0000 17.0336 0.0000 0.0000 12.7752 0.0000
0.2793 0.7856 -0.0048 0.0000 0.0000 0.0000 0.0000 -19.1100 0.0000 0.0000 14.3325 0.0000 0.0000 19.1100 0.0000 0.0000 14.3325 0.0000
0.2809 0.7809 -0.0050 0.0000 0.0000 0.0000 0.0000 -19.9776 0.0000 0.0000 14.9832 0.0000 0.0000 19.9776 0.0000 0.0000 14.9832 0.0000
0.2826 0.7760 -0.0049 0.0000 0.0000 0.0000 0.0000 -19.5817 0.0000 0.0000 14.6863 0.0000 0.0000 19.5817 0.0000 0.0000 14.6863 0.0000
0.2843 0.7721 -0.0045 0.0000 0.0000 0.0000 0.0000 -17.9471 0.0000 0.0000 13.4603 0.0000 0.0000 17.9471 0.0000 0.0000 13.4603 0.0000
0.2860 0.7701 -0.0038 0.0000 0.0000 0.0000 0.0000 -15.1774 0.0000 0.0000 11.3830 0.0000 0.0000 15.1774 0.0000 0.0000 11.3830 0.0000
0.2876 0.7706 -0.0029 0.0000 0.0000 0.0000 0.0000 -11.4476 0.0000 0.0000 8.5857 0.0000 0.0000 11.4476 0.0000 0.0000 8.5857 0.0000
0.2893 0.7734 -0.0017 0.0000 0.0000 0.0000 0.0000 -6.9938 0.0000 0.0000 5.2453 0.0000 0.0000 6.9938 0.0000 0.0000 5.2453 0.0000
0.2910 0.7779 -0.0005 0.0000 0.0000 0.0000 0.0000 -2.0975 0.0000 0.0000 1.5732 0.0000 0.0000 2.0975 0.0000 0.0000 1.5732 0.0000
0.2926 0.7829 0.0007 0.0000 0.0000 0.0000 0.0000 2.9314 0.0000 0.0000 2.1985 0.0000 0.0000 -2.9314 0.0000 0.0000 2.1985 0.0000
0.2943 0.7872 0.0019 0.0000 0.0000 0.0000 0.0000 7.7748 0.0000 0.0000 5.8311 0.0000 0.0000 -7.7748 0.0000 0.0000 5.8311 0.0000
0.2960 0.7896 0.0030 0.0000 0.0000 0.0000 0.0000 12.1265 0.0000 0.0000 9.0949 0.0000 0.0000 -12.1265 0.0000 0.0000 9.0949 0.0000
0.2977 0.7897 0.0039 0.0000 0.0000 0.0000 0.0000 15.7112 0.0000 0.0000 11.7834 0.0000 0.0000 -15.7112 0.0000 0.0000 11.7834 0.0000
0.2993 0.7874 0.0046 0.0000 0.0000 0.0000 0.0000 18.3021 0.0000 0.0000 13.7266 0.0000 0.0000 -18.3021 0.0000 0.0000 13.7266 0.0000
0.3010 0.7832 0.0049 0.0000 0.0000 0.0000 0.0000 19.7354 0.0000 0.0000 14.8015 0.0000 0.0000 -19.7354 0.0000 0.0000 14.8015 0.0000
0.3027 0.7782 0.0050 0.0000 0.0000 0.0000 0.0000 19.9203 0.0000 0.0000 14.9402 0.0000 0.0000 -19.9203 0.0000 0.0000 14.9402 0.0000
0.3043 0.7737 0.0047 0.0000 0.0000 0.0000 0.0000 18.8452 0.0000 0.0000 14.1339 0.0000 0.0000 -18.8452 0.0000 0.0000 14.1339 0.0000
0.3060 0.7707 0.0041 0.0000 0.0000 0.0000 0.0000 16.5781 0.0000 0.0000 12.4336 0.0000 0.0000 -16.5781 0.0000 0.0000 12.4336 0.0000
0.3077 0.7701 0.0033 0.0000 0.0000 0.0000 0.0000 13.2625 0.0000 0.0000 9.9468 0.0000 0.0000 -13.2625 0.0000 0.0000 9.9468 0.0000
0.3094 0.7719 0.0023 0.0000 0.0000 0.0000 0.0000 9.1079 0.0000 0.0000 6.8309 0.0000 0.0000 -9.1079 0.0000 0.0000 6.8309 0.0000
0.3110 0.7757 0.0011 0.0000 0.0000 0.0000 0.0000 4.3772 0.0000 0.0000 3.2829 0.0000 0.0000 -4.3772 0.0000 0.0000 3.2829 0.0000
0.3127 0.7806 -0.0002 0.0000 0.0000 0.0000 0.0000 -0.6303 0.0000 0.0000 0.4727 0.0000 0.0000 0.6303 0.0000 0.0000 0.4727 0.0000
0.3144 0.7854 -0.0014 0.0000 0.0000 0.0000 0.0000 -5.5980 0.0000 0.0000 4.1985 0.0000 0.0000 5.5980 0.0000 0.0000 4.1985 0.0000
0.3161 0.7888 -0.0026 0.0000 0.0000 0.0000 0.0000 -10.2116 0.0000 0.0000 7.6587 0.0000 0.0000 10.2116 0.0000 0.0000 7.6587 0.0000
0.3177 0.7900 -0.0035 0.0000 0.0000 0.0000 0.0000 -14.1792 0.0000 0.0000 10.6344 0.0000 0.0000 14.1792 0.0000 0.0000 10.6344 0.0000
0.3194 0.7887 -0.0043 0.0000 0.0000 0.0000 0.0000 -17.2500 0.0000 0.0000 12.9375 0.0000 0.0000 17.2500 0.0000 0.0000 12.9375 0.0000
0.3211 0.7853 -0.0048 0.0000 0.0000 0.0000 0.0000 -19.2297 0.0000 0.0000 14.4223 0.0000 0.0000 19.2297 0.0000 0.0000 14.4223 0.0000
0.3227 0.7805 -0.0050 0.0000 0.0000 0.0000 0.0000 -19.9931 0.0000 0.0000 14.9948 0.0000 0.0000 19.9931 0.0000 0.0000 14.9948 0.0000
0.3244 0.7756 -0.0049 0.0000 0.0000 0.0000 0.0000 -19.4919 0.0000 0.0000 14.6189 0.0000 0.0000 19.4919 0.0000 0.0000 14.6189 0.0000
0.3261 0.7718 -0.0044 0.0000 0.0000 0.0000 0.0000 -17.7577 0.0000 0.0000 13.3183 0.0000 0.0000 17.7577 0.0000 0.0000 13.3183 0.0000
0.3278 0.7701 -0.0037 0.0000 0.0000 0.0000 0.0000 -14.9003 0.0000 0.0000 11.1753 0.0000 0.0000 14.9003 0.0000 0.0000 11.1753 0.0000
0.3294 0.7708 -0.0028 0.0000 0.0000 0.0000 0.0000 -11.1005 0.0000 0.0000 8.3254 0.0000 0.0000 11.1005 0.0000 0.0000 8.3254 0.0000
0.3311 0.7738 -0.0016 0.0000 0.0000 0.0000 0.0000 -6.5985 0.0000 0.0000 4.9489 0.0000 0.0000 6.5985 0.0000 0.0000 4.9489 0.0000
0.3328 0.7783 -0.0004 0.0000 0.0000 0.0000 0.0000 -1.6791 0.0000 0.0000 1.2594 0.0000 0.0000 1.6791 0.0000 0.0000 1.2594 0.0000
0.3344 0.7833 0.0008 0.0000 0.0000 0.0000 0.0000 3.3464 0.0000 0.0000 2.5098 0.0000 0.0000 -3.3464 0.0000 0.0000 2.5098 0.0000
0.3361 0.7875 0.0020 0.0000 0.0000 0.0000 0.0000 8.1603 0.0000 0.0000 6.1202 0.0000 0.0000 -8.1603 0.0000 0.0000 6.1202 0.0000
0.3378 0.7897 0.0031 0.0000 0.0000 0.0000 0.0000 12.4581 0.0000 0.0000 9.3435 0.0000 0.0000 -12.4581 0.0000 0.0000 9.3435 0.0000
